<svg xmlns="http://www.w3.org/2000/svg">
    <symbol id="icon-whatsapp" fill="currentColor" viewBox="0 0 20 20" xmlns="http://www.w3.org/2000/svg">
        <path fill-rule="evenodd" clip-rule="evenodd"
            d="M9.9975 0H10.0025C15.5162 0 20 4.48625 20 10C20 15.5138 15.5162 20 10.0025 20C7.96875 20 6.0825 19.395 4.50125 18.3475L0.6575 19.5763L1.90375 15.8612C0.705 14.215 0 12.1875 0 10C0 4.485 4.48375 0 9.9975 0ZM13.8588 15.5325C14.6226 15.3675 15.5801 14.8025 15.8213 14.1212C16.0626 13.4387 16.0626 12.8575 15.9926 12.7337C15.936 12.6355 15.8024 12.5712 15.6029 12.4751C15.5509 12.4501 15.4945 12.423 15.4338 12.3925C15.1401 12.2462 13.7113 11.54 13.4413 11.4462C13.1763 11.3462 12.9238 11.3812 12.7238 11.6637C12.6858 11.717 12.6478 11.7704 12.6101 11.8234C12.3688 12.1628 12.1361 12.4901 11.9426 12.6987C11.7663 12.8862 11.4788 12.91 11.2376 12.81C11.2113 12.799 11.1811 12.7868 11.1473 12.7732C10.7654 12.6189 9.91813 12.2767 8.89256 11.3637C8.02756 10.5937 7.44006 9.63498 7.27006 9.34748C7.10315 9.05907 7.24712 8.88995 7.38019 8.73365C7.38265 8.73076 7.38511 8.72787 7.38756 8.72498C7.47335 8.61884 7.5566 8.53045 7.64027 8.44163C7.70045 8.37773 7.76085 8.31361 7.82256 8.24248C7.83173 8.23192 7.84064 8.22167 7.84932 8.21169C7.98036 8.06102 8.05839 7.9713 8.14631 7.78373C8.24631 7.58998 8.17506 7.38998 8.10381 7.24248C8.05479 7.13918 7.75197 6.40444 7.492 5.7737C7.38076 5.50379 7.27736 5.25292 7.20506 5.07873C7.01131 4.61498 6.86381 4.59748 6.57006 4.58498C6.56107 4.58453 6.55198 4.58407 6.5428 4.58361C6.44995 4.57891 6.34768 4.57373 6.23506 4.57373C5.85256 4.57373 5.45381 4.68623 5.21256 4.93248C5.20413 4.94109 5.19534 4.95003 5.18623 4.9593C4.87759 5.27319 4.19006 5.97241 4.19006 7.36623C4.19006 8.76274 5.18094 10.1143 5.36428 10.3643C5.36933 10.3712 5.37377 10.3773 5.37756 10.3825C5.3886 10.397 5.40939 10.4271 5.43965 10.4709C5.814 11.013 7.63736 13.6535 10.3563 14.78C12.6538 15.7325 13.3363 15.6437 13.8588 15.5325Z" />
    </symbol>
    <symbol id="icon-tg" fill="currentColor" viewBox="0 0 22 18" xmlns="http://www.w3.org/2000/svg">
        <path fill-rule="evenodd" clip-rule="evenodd"
            d="M22 1.44622C21.8844 1.94953 21.7641 2.45183 21.6541 2.95632C20.9432 6.21875 20.2346 9.48168 19.5249 12.7444C19.2192 14.1495 18.9158 15.5552 18.603 16.9588C18.5624 17.1412 18.4899 17.3224 18.4006 17.4876C18.1615 17.9292 17.7678 18.0957 17.2832 17.9467C17.0623 17.8787 16.8397 17.7793 16.653 17.6465C15.0719 16.5215 13.4989 15.3855 11.9234 14.253C11.8664 14.212 11.8079 14.1728 11.7399 14.1257C11.6876 14.1696 11.6382 14.2072 11.5931 14.2494C10.7797 15.0104 9.96622 15.7713 9.1542 16.5339C8.91227 16.761 8.63696 16.8977 8.27512 16.8772C8.30507 16.4379 8.33256 16.0127 8.36336 15.5878C8.4279 14.6981 8.49409 13.8085 8.55983 12.9189C8.57019 12.7788 8.60741 12.6354 8.58869 12.4993C8.51791 11.9864 8.8116 11.689 9.17035 11.3751C12.0869 8.82213 14.9895 6.25373 17.8963 3.68988C17.9389 3.65231 17.9941 3.62065 18.0193 3.57374C18.0653 3.48769 18.0932 3.39231 18.1288 3.3008C18.0307 3.27375 17.9221 3.20659 17.8365 3.22797C17.6602 3.27189 17.4834 3.34309 17.3288 3.43786C13.5401 5.76116 9.75418 8.08879 5.96864 10.4171C5.86231 10.4825 5.77103 10.5187 5.63452 10.4764C4.02852 9.97852 2.41891 9.49203 0.813018 8.99373C0.618731 8.93343 0.42536 8.84333 0.25913 8.72854C-0.0533439 8.5128 -0.0909645 8.19695 0.188585 7.94189C0.393351 7.75505 0.641292 7.58925 0.900055 7.4883C2.25308 6.96035 3.61532 6.4553 4.97499 5.94378C10.1402 4.00084 15.3055 2.05785 20.4722 0.118797C20.6366 0.0570996 20.8158 0.0164929 20.9911 0.00327607C21.4558 -0.0317064 21.8006 0.215252 21.9427 0.658833C21.9594 0.711081 21.9808 0.76198 22 0.813498V1.44622Z" />
    </symbol>
    <symbol id="icon-vk" fill="currentColor" viewBox="0 0 24 14" xmlns="http://www.w3.org/2000/svg">
        <path fill-rule="evenodd" clip-rule="evenodd"
            d="M7.92898 0.972652C8.10115 0.584837 8.37473 0.344025 8.73062 0.254702C9.16196 0.146473 9.60749 0.0718104 10.0505 0.0435314C11.0907 -0.0228801 12.1332 -0.0395431 13.1615 0.187249C13.7311 0.312863 14.0157 0.623691 14.0255 1.2266C14.0416 2.20659 14.0074 3.18738 14.004 4.16785C14.002 4.75739 14.0181 5.347 14.0263 5.93653C14.0265 5.95656 14.028 5.97675 14.0314 5.99637C14.0915 6.33805 14.1669 6.70551 14.5144 6.83096C14.8454 6.95041 15.0802 6.67058 15.2833 6.44724C16.2368 5.39923 16.9288 4.1717 17.5368 2.89242C17.7881 2.36369 18.0015 1.81565 18.2251 1.27331C18.4264 0.784953 18.6494 0.622569 19.158 0.618804C20.4242 0.609431 21.6902 0.600859 22.9563 0.591967C23.9683 0.584837 24.216 0.947898 23.8219 1.90706C23.3671 3.01378 22.6551 3.9578 21.9638 4.9124C21.4815 5.5786 20.977 6.22813 20.5052 6.90194C19.8565 7.82866 19.895 8.16096 20.6751 8.9748C21.5014 9.83663 22.3396 10.6875 23.1392 11.575C23.4252 11.8927 23.6383 12.2896 23.8404 12.6749C24.1345 13.2355 23.9477 13.6705 23.3542 13.8596C23.1713 13.9179 22.9729 13.9453 22.7809 13.9493C21.6806 13.9722 20.5802 13.9899 19.4797 13.9973C18.809 14.0018 18.2498 13.6901 17.7814 13.237C17.2862 12.7579 16.8425 12.2228 16.369 11.7193C16.1327 11.4681 15.8971 11.2107 15.6312 10.9953C15.1054 10.5696 14.6179 10.6683 14.3669 11.3086C14.1852 11.7717 14.082 12.2868 14.0459 12.7866C13.9796 13.7033 13.722 13.9885 12.8262 13.9972C11.7543 14.0075 10.6879 14.0069 9.64552 13.6772C7.81487 13.0981 6.36419 11.9683 5.16323 10.4669C3.42128 8.28929 2.10513 5.84176 0.893496 3.32918C0.617421 2.75671 0.356467 2.17615 0.103852 1.59223C-0.142683 1.02208 0.0528772 0.686978 0.65686 0.671036C1.74713 0.642196 2.83803 0.635868 3.92861 0.624171C4.5262 0.617763 4.9174 0.877641 5.15505 1.47687C5.79925 3.10191 6.60924 4.63938 7.64168 6.043C7.82726 6.29535 8.05119 6.53023 8.29554 6.72185C8.65634 7.00472 9.00506 6.90274 9.15292 6.4631C9.2721 6.10861 9.3703 5.7276 9.37779 5.35629C9.39727 4.38792 9.42011 3.41273 9.33188 2.45101C9.24404 1.49273 8.94045 1.23597 7.92898 0.972652Z" />
    </symbol>
    <symbol id="icon-youtube" fill="currentColor" viewBox="0 0 22 16" xmlns="http://www.w3.org/2000/svg">
        <path fill-rule="evenodd" clip-rule="evenodd" d="M8.38181 3.20123C9.42607 3.92357 10.5054 4.71634 11.542 5.47934C12.5888 6.25084 13.6511 6.99303 14.6675 7.73948C12.8452 8.92841 11.0152 10.0748 9.168 11.2467C8.90865 11.4103 8.66213 11.6093 8.38181 11.7346V3.20123ZM0.00617203 4.42965V11.6371C0.00617203 12.485 -0.0356037 13.2863 0.162377 13.8797C0.359449 14.4688 0.715451 14.943 1.13548 15.2869C1.57094 15.642 2.07634 15.9012 2.82013 15.9631C3.52032 16.0203 4.3404 15.9812 5.14731 15.9812H16.8699C17.6582 15.9812 18.4565 16.0338 19.2148 15.9631C20.5562 15.8379 21.4798 14.9732 21.8371 13.8452C22.031 13.2337 21.9934 12.4324 21.9934 11.6022V4.39382C21.9934 3.53942 22.0492 2.80323 21.8371 2.15079C21.6482 1.56956 21.3181 1.09164 20.8827 0.727268C20.4558 0.370339 19.9618 0.0962436 19.2148 0.032955C18.4778 -0.0284721 17.6541 0.0148061 16.8876 0.0148061H5.16456C4.38989 0.0148061 3.49626 -0.027076 2.78562 0.032955C1.46605 0.144641 0.480689 1.04836 0.145576 2.16894C-0.0446853 2.80322 0.00617203 3.6162 0.00617203 4.42965Z" />
    </symbol>
</svg>